<?xml version="1.0" encoding="UTF-8"?>
<svg id="_x31_" xmlns="http://www.w3.org/2000/svg" version="1.1" viewBox="0 0 800 481.6">
  <!-- Generator: Adobe Illustrator 30.1.0, SVG Export Plug-In . SVG Version: 2.1.1 Build 136)  -->
  <defs>
    <style>
      .st0 {
        fill: #4f5a7a;
      }
    </style>
  </defs>
  <path class="st0" d="M744.3,134.6c-5.6-6.5-14.9-9.3-21.4-5.6-6.5,3.7-11.2,15.8-11.2,15.8,0,0-23.7,15.6-37.3,22.4-16.8,8.4-45.7,16.8-65.2,16.8s-11.2-8.4-19.6-12.1c-8.4-3.7-13.1-15.8,0-17.7,13-1.9,22.3-14,28.9-18.6,9.3,0,19.6-15.8,17.7-25.2-1.9-9.3-13.1-14.9-18.6-33.5-5.6-18.6-26.1-28.9-28.9-31.7-2.8-2.8-3.7-14-3.7-17.7s-2.8-8.4-8.4-4.7c.9-4.6-4.7-13.3-7.3-14.2-6-1.5-8.5-3.4-31.8,19.8-22.3,9.3-66.1,47.5-72.7,55.9,0,0-23.4,38-28.9,55.9-10.3,33.5-148.1,82-181.7,157.4-15.9,35.8-19.8,56.8-20.9,71.3-29.8,32.4-52.1,49.4-103.5,43-29-1-42.4-12.6-62,6-19.6,18.6,2.6,44.8,24,42,25,3,32.3,2.9,56-2,34-7,44.3-15.4,82.9-21.6,4.2,17,16.2,33.2,45.9,37.4,58.7,8.4,96.1-1,123.9,1.9,44.7,4.7,54-19.6,34.5-29.8-8.7-4.6-13.1-6-15.8-6,6.5-3.2,15.5-8,18.6-11.7,5.6-6.5,10.2-11.2,10.2-11.2,0,0,21.4,37.3,32.6,43.8,11.2,6.5,64.3,8.4,68-.9,3.7-9.3,1.9-24.2-27-27.9-14.4-1.9-13-46.6-13-55.9s3.7-59.6,8.4-64.3c4.7-4.7,44.7-48.4,44.7-48.4,37.3.9,95.9-43.8,109-55,13-11.2,53.1-19.6,66.2-35.4,13-15.8,13-31.7,7.4-38.2ZM412.6,442.9c-1.2.5-.5.2,1.2-.7-.4.2-.8.5-1.2.7Z"/>
</svg>