<?xml version="1.0" encoding="UTF-8"?>
<svg id="_x33_" xmlns="http://www.w3.org/2000/svg" version="1.1" viewBox="0 0 800 519.4">
  <!-- Generator: Adobe Illustrator 30.1.0, SVG Export Plug-In . SVG Version: 2.1.1 Build 136)  -->
  <defs>
    <style>
      .st0 {
        fill: #4f5a7a;
      }
    </style>
  </defs>
  <path class="st0" d="M790.3,4c-18-1.2-45.6,30-45.6,30,0,0-13.2,0-28.8-3.6-15.6-3.6-45.6-1.2-45.6-1.2,0,0-33.6-31.2-43.2-27.6-9.6,3.6-8.4,33.6-2.4,52.8,0,0-3.6,31.2-19.2,37.2-15.6,6-114-22.8-258-3.6-144,19.2-197.1,161.6-200.4,211.2-3.6,54-23,131.5-48,140.4-33.6,12-58.8-21.6-63.6-39.6-4.8-18-26.4-34.8-33.6,0-2.4,76.8,92.1,89,127.2,63.6,48-34.8,60-166.8,63.6-165.6,3.6,1.2,15.6,19.2,25.2,28.8,9.6,9.6,6,51.6,4.8,55.2-1.2,3.6-16.8,21.6-14.4,30,2.4,8.4,36,36,36,36l24,25.2s13.2,14.4,20.4,24c7.2,9.6,13.2,14.4,42,19.2,28.8,4.8,37.2,0,34.8-14.4,7.2-9.6-7.2-26.4-14.4-24-7.2,2.4-27.6-2.4-20.4-3.6,7.2-1.2,10.8-7.2,10.8-13.2,9.6-6,4.8-12,0-16.8-4.8-4.8-34.8-4.8-34.8-4.8,0,0-8.4-14.4,22.8-28.8,31.2-14.4,52.8-81.6,68.4-78,15.6,3.6,96-12,105.6-18,1.2-.8,2.4-1.4,3.5-1.9-.2,33.4-.9,98.3-3.5,106.3-3.6,10.8-1.2,28.8,3.6,33.6,6,7.2,10.8,10.8,16.8,8.4,8.4,7.2,52.8,6,24-26.4-6.5-24.4-5.4-48.8-1.8-68.5,6.8,18.6,12.6,36.1,12.6,36.1l26.4,61.2s-1.2,15.6,12,21.6c13.2,6,36,2.4,36,2.4,0,0,8.4,1.2,13.2-7.2,3.6-4.8,2.4-12-2.4-16.8-4.8-4.8-14.4-7.2-32.4-15.6-18-68.4,21.6-144,52.8-163.2,31.2-19.2,57.6-75.6,58.8-86.4,1.2-10.8,8.4-20.4,27.6-32.4,19.2-12,37.2-66,30-84,8.5-5.3,23.6-61.4,14.4-75s-3.9,2.7-4.7,2.2.9-5.1-.2-5.2Z"/>
</svg>