<?xml version="1.0" encoding="UTF-8"?>
<svg id="_レイヤー_2" data-name="レイヤー 2" xmlns="http://www.w3.org/2000/svg" viewBox="0 0 104.75 20.42">
  <defs>
    <style>
      .cls-1 {
        fill: #231815;
      }
    </style>
  </defs>
  <g id="logo">
    <g>
      <polygon points="23.17 19.86 11.58 1.56 10.59 0 9.37 1.87 10.37 3.46 0 19.86 23.17 19.86"/>
      <path class="cls-1" d="M44.4,5.59c-1.51.61-2.36.88-4.06,1.17-.55-1.32-.74-1.97-1.15-3.61.01-.01.02-.02.03-.03-.1-.2-.18-.42-.25-.64l-1.87.02c.13.42.15.5.32,1.07.34,1.2.71,2.29,1.2,3.5-2.06.31-3.77.41-6.58.45l.25,1.78c2.29-.1,4.67-.33,6.97-.63.72,1.52,1.03,2.35,1.64,3.24l.59.84-.93-.43c-.83-.25-1.48-.34-2.38-.38-3.25-.13-5.27,1.26-5.37,3.69-.09,2.37,1.78,4.47,6.85,4.68,1.25.05,2.09.08,2.76.09.14-.9.26-1.2.68-1.85-1.36.03-2.03.05-3.04,0-4.18-.17-5.49-1.37-5.42-2.98.06-1.46,1.34-2.21,3.62-2.12,1.7.07,2.89.46,4.66,1.5l1.34-1.2c-1.48-1.79-2.21-3-3.28-5.44,1.65-.37,2.53-.61,4.17-1.15l-.76-1.61ZM57.18,8.07c-.36,0-.93.06-1.83.2.4-1.21.69-2.28.99-3.35.06-.02.11-.04.16-.06-.07-.2-.13-.41-.17-.62l-1.49-.34c-.14,1.01-.4,2.06-1.17,4.6-2.4.34-3.24.44-4.72.54l.28,1.75c1.07-.2,2.4-.44,3.99-.71-1.33,3.69-2.5,5.78-4.55,8.53.67.3.91.48,1.45,1.03,2.16-3.08,3.69-6.41,4.82-9.86,1.07-.2,1.59-.28,1.93-.28.69,0,1.13.54,1.13,1.35,0,1.93-.59,4.68-1.33,6.11-.24.46-.67.69-1.31.69-.58,0-1.01-.08-1.99-.36-.02.85-.04,1.13-.12,1.73.89.24,1.41.32,2.11.32,1.29,0,2.2-.52,2.74-1.55.91-1.79,1.55-4.74,1.55-7.19,0-.67-.22-1.31-.59-1.73-.48-.5-1.21-.81-1.87-.81ZM61.29,7.68l-.91,1.17c2.02,1.31,3.51,2.86,4.68,4.9l1.41-1.13c-1.57-2.26-2.88-3.53-5.18-4.94ZM104.67,14.94c-.42-1.71-2.16-2.36-4.65-1.75-.72.18-1.42.44-2.12.79-.2-.89-.4-1.88-.57-2.78.36-.07.75-.14,1.24-.26,2.64-.65,3.29-1.58,2.97-2.89-.15-.61-.46-1.03-1.29-1.59l-1.02,1.04c.43.28.58.44.64.69.14.57-.33.91-1.71,1.25-.36.09-.86.17-1.14.21-.26-1.13-.5-2.19-.79-3.38,1.14-.21,2.99-.6,4.54-.99.76-.19,1.54-.4,2.29-.61l-.34-1.64c-1.02.32-1.86.57-3.3.93-1.4.35-2.55.59-3.58.77-.52-2.09-.64-2.87-.7-3.85l-1.91.6c-.01.2-.04.39-.07.58.06.03.13.05.23.08.24.95.52,1.91.75,2.87-1.73.25-3.09.34-4.52.34-.16.02-.32.02-.49.02h0l.16,1.62c1.92-.05,3.46-.18,5.24-.44.3,1.23.5,2.21.74,3.27-1.65.14-2.72.07-4.32-.39l-.15,1.67c1.71.39,2.85.44,4.78.28.26,1.13.46,2.3.72,3.43-1.41.67-4.89,2.19-8.93,3.06-2.39.51-5.57.98-11.12.57-.01,0-.02,0-.03,0-3.41-.17-4.58-1.24-4.58-2.72s1.25-2.26,3.54-2.26c1.7,0,2.91.35,4.72,1.31l1.29-1.25c-1.55-1.72-2.33-2.91-3.49-5.3,1.64-.43,2.5-.71,4.12-1.31l-.81-1.56s-.1.04-.15.05c-1.4.62-2.24.92-3.87,1.27-.6-1.29-.82-1.94-1.29-3.56.04-.04.07-.07.09-.1-.07-.19-.12-.38-.16-.57l-2.05.11c.15.41.17.5.37,1.06.39,1.19.8,2.26,1.34,3.45-2.05.39-3.75.56-6.55.71l.32,1.77c2.29-.19,4.66-.52,6.94-.91.77,1.49,1.12,2.31,1.77,3.17l.62.82-.95-.39c-.84-.22-1.49-.28-2.39-.28-3.26,0-5.22,1.47-5.22,3.9,0,2.28,1.82,4.22,6.45,4.38,1.42.1,2.74.16,3.98.16,2.71,0,5.08-.25,7.49-.77,3.96-.85,7.35-2.28,9-3.04.71,1.99,2.3,2.65,4.74,2.04,2.37-.59,3.61-2.04,3.19-3.71ZM101.17,17.15c-1.63.4-2.48.07-2.93-1.59.71-.47,1.43-.76,2.25-.96,1.46-.36,2.28-.14,2.48.67.22.89-.43,1.54-1.8,1.88Z"/>
    </g>
  </g>
</svg>